<?xml version="1.0" encoding="utf-8"?>
<!DOCTYPE svg PUBLIC "-//W3C//DTD SVG 1.1//EN" "http://www.w3.org/Graphics/SVG/1.1/DTD/svg11.dtd">
<svg version="1.1" id="Layer_1" xmlns="http://www.w3.org/2000/svg" xmlns:xlink="http://www.w3.org/1999/xlink" x="0px" y="0px"
width="2320px" height="2320px" viewBox="0 0 2320 2320" enable-background="new 0 0 2320 2320" xml:space="preserve">
<rect x="0" y="0" width="2320" height="2320" fill="rgb(0,0,0)" /><g transform="translate(160,160)"><g><defs>
    <linearGradient gradientTransform="rotate(90)" id="grad">
    <stop offset="5%" stop-color="rgb(255,0,0)" />
    <stop offset="95%" stop-color="rgb(255,221,0)" />
    </linearGradient>
<mask id="gmask"><g>
<g transform="translate(640,0) scale(0.8,0.8)"><g transform="" style="fill: rgb(255, 255, 255);">
<g>
	<circle cx="50" cy="50" r="30"/>
</g>
</g></g><g transform="translate(800,0) scale(0.8,0.8)"><g transform="" style="fill: rgb(255, 255, 255);">
<g>
	<circle cx="50" cy="50" r="30"/>
</g>
</g></g><g transform="translate(960,0) scale(0.8,0.8)"><g transform="" style="fill: rgb(255, 255, 255);">
<g>
	<circle cx="50" cy="50" r="30"/>
</g>
</g></g><g transform="translate(720,80) scale(0.8,0.8)"><g transform="" style="fill: rgb(255, 255, 255);">
<g>
	<circle cx="50" cy="50" r="30"/>
</g>
</g></g><g transform="translate(800,80) scale(0.8,0.8)"><g transform="" style="fill: rgb(255, 255, 255);">
<g>
	<circle cx="50" cy="50" r="30"/>
</g>
</g></g><g transform="translate(1280,80) scale(0.8,0.8)"><g transform="" style="fill: rgb(255, 255, 255);">
<g>
	<circle cx="50" cy="50" r="30"/>
</g>
</g></g><g transform="translate(800,160) scale(0.8,0.8)"><g transform="" style="fill: rgb(255, 255, 255);">
<g>
	<circle cx="50" cy="50" r="30"/>
</g>
</g></g><g transform="translate(880,160) scale(0.8,0.8)"><g transform="" style="fill: rgb(255, 255, 255);">
<g>
	<circle cx="50" cy="50" r="30"/>
</g>
</g></g><g transform="translate(1040,160) scale(0.8,0.8)"><g transform="" style="fill: rgb(255, 255, 255);">
<g>
	<circle cx="50" cy="50" r="30"/>
</g>
</g></g><g transform="translate(1200,160) scale(0.8,0.8)"><g transform="" style="fill: rgb(255, 255, 255);">
<g>
	<circle cx="50" cy="50" r="30"/>
</g>
</g></g><g transform="translate(1280,160) scale(0.8,0.8)"><g transform="" style="fill: rgb(255, 255, 255);">
<g>
	<circle cx="50" cy="50" r="30"/>
</g>
</g></g><g transform="translate(640,240) scale(0.8,0.8)"><g transform="" style="fill: rgb(255, 255, 255);">
<g>
	<circle cx="50" cy="50" r="30"/>
</g>
</g></g><g transform="translate(720,240) scale(0.8,0.8)"><g transform="" style="fill: rgb(255, 255, 255);">
<g>
	<circle cx="50" cy="50" r="30"/>
</g>
</g></g><g transform="translate(960,240) scale(0.8,0.8)"><g transform="" style="fill: rgb(255, 255, 255);">
<g>
	<circle cx="50" cy="50" r="30"/>
</g>
</g></g><g transform="translate(1120,240) scale(0.8,0.8)"><g transform="" style="fill: rgb(255, 255, 255);">
<g>
	<circle cx="50" cy="50" r="30"/>
</g>
</g></g><g transform="translate(1200,240) scale(0.8,0.8)"><g transform="" style="fill: rgb(255, 255, 255);">
<g>
	<circle cx="50" cy="50" r="30"/>
</g>
</g></g><g transform="translate(1280,240) scale(0.8,0.8)"><g transform="" style="fill: rgb(255, 255, 255);">
<g>
	<circle cx="50" cy="50" r="30"/>
</g>
</g></g><g transform="translate(640,320) scale(0.8,0.8)"><g transform="" style="fill: rgb(255, 255, 255);">
<g>
	<circle cx="50" cy="50" r="30"/>
</g>
</g></g><g transform="translate(800,320) scale(0.8,0.8)"><g transform="" style="fill: rgb(255, 255, 255);">
<g>
	<circle cx="50" cy="50" r="30"/>
</g>
</g></g><g transform="translate(880,320) scale(0.8,0.8)"><g transform="" style="fill: rgb(255, 255, 255);">
<g>
	<circle cx="50" cy="50" r="30"/>
</g>
</g></g><g transform="translate(960,320) scale(0.8,0.8)"><g transform="" style="fill: rgb(255, 255, 255);">
<g>
	<circle cx="50" cy="50" r="30"/>
</g>
</g></g><g transform="translate(1040,320) scale(0.8,0.8)"><g transform="" style="fill: rgb(255, 255, 255);">
<g>
	<circle cx="50" cy="50" r="30"/>
</g>
</g></g><g transform="translate(1120,320) scale(0.8,0.8)"><g transform="" style="fill: rgb(255, 255, 255);">
<g>
	<circle cx="50" cy="50" r="30"/>
</g>
</g></g><g transform="translate(1280,320) scale(0.8,0.8)"><g transform="" style="fill: rgb(255, 255, 255);">
<g>
	<circle cx="50" cy="50" r="30"/>
</g>
</g></g><g transform="translate(640,400) scale(0.8,0.8)"><g transform="" style="fill: rgb(255, 255, 255);">
<g>
	<circle cx="50" cy="50" r="30"/>
</g>
</g></g><g transform="translate(800,400) scale(0.8,0.8)"><g transform="" style="fill: rgb(255, 255, 255);">
<g>
	<circle cx="50" cy="50" r="30"/>
</g>
</g></g><g transform="translate(880,400) scale(0.8,0.8)"><g transform="" style="fill: rgb(255, 255, 255);">
<g>
	<circle cx="50" cy="50" r="30"/>
</g>
</g></g><g transform="translate(960,400) scale(0.8,0.8)"><g transform="" style="fill: rgb(255, 255, 255);">
<g>
	<circle cx="50" cy="50" r="30"/>
</g>
</g></g><g transform="translate(1040,400) scale(0.8,0.8)"><g transform="" style="fill: rgb(255, 255, 255);">
<g>
	<circle cx="50" cy="50" r="30"/>
</g>
</g></g><g transform="translate(1120,400) scale(0.8,0.8)"><g transform="" style="fill: rgb(255, 255, 255);">
<g>
	<circle cx="50" cy="50" r="30"/>
</g>
</g></g><g transform="translate(1200,400) scale(0.8,0.8)"><g transform="" style="fill: rgb(255, 255, 255);">
<g>
	<circle cx="50" cy="50" r="30"/>
</g>
</g></g><g transform="translate(640,480) scale(0.8,0.8)"><g transform="" style="fill: rgb(255, 255, 255);">
<g>
	<circle cx="50" cy="50" r="30"/>
</g>
</g></g><g transform="translate(800,480) scale(0.8,0.8)"><g transform="" style="fill: rgb(255, 255, 255);">
<g>
	<circle cx="50" cy="50" r="30"/>
</g>
</g></g><g transform="translate(960,480) scale(0.8,0.8)"><g transform="" style="fill: rgb(255, 255, 255);">
<g>
	<circle cx="50" cy="50" r="30"/>
</g>
</g></g><g transform="translate(1120,480) scale(0.8,0.8)"><g transform="" style="fill: rgb(255, 255, 255);">
<g>
	<circle cx="50" cy="50" r="30"/>
</g>
</g></g><g transform="translate(1280,480) scale(0.8,0.8)"><g transform="" style="fill: rgb(255, 255, 255);">
<g>
	<circle cx="50" cy="50" r="30"/>
</g>
</g></g><g transform="translate(640,560) scale(0.8,0.8)"><g transform="" style="fill: rgb(255, 255, 255);">
<g>
	<circle cx="50" cy="50" r="30"/>
</g>
</g></g><g transform="translate(720,560) scale(0.8,0.8)"><g transform="" style="fill: rgb(255, 255, 255);">
<g>
	<circle cx="50" cy="50" r="30"/>
</g>
</g></g><g transform="translate(800,560) scale(0.8,0.8)"><g transform="" style="fill: rgb(255, 255, 255);">
<g>
	<circle cx="50" cy="50" r="30"/>
</g>
</g></g><g transform="translate(960,560) scale(0.8,0.8)"><g transform="" style="fill: rgb(255, 255, 255);">
<g>
	<circle cx="50" cy="50" r="30"/>
</g>
</g></g><g transform="translate(1120,560) scale(0.8,0.8)"><g transform="" style="fill: rgb(255, 255, 255);">
<g>
	<circle cx="50" cy="50" r="30"/>
</g>
</g></g><g transform="translate(0,640) scale(0.8,0.8)"><g transform="" style="fill: rgb(255, 255, 255);">
<g>
	<circle cx="50" cy="50" r="30"/>
</g>
</g></g><g transform="translate(320,640) scale(0.8,0.8)"><g transform="" style="fill: rgb(255, 255, 255);">
<g>
	<circle cx="50" cy="50" r="30"/>
</g>
</g></g><g transform="translate(480,640) scale(0.8,0.8)"><g transform="" style="fill: rgb(255, 255, 255);">
<g>
	<circle cx="50" cy="50" r="30"/>
</g>
</g></g><g transform="translate(560,640) scale(0.8,0.8)"><g transform="" style="fill: rgb(255, 255, 255);">
<g>
	<circle cx="50" cy="50" r="30"/>
</g>
</g></g><g transform="translate(640,640) scale(0.8,0.8)"><g transform="" style="fill: rgb(255, 255, 255);">
<g>
	<circle cx="50" cy="50" r="30"/>
</g>
</g></g><g transform="translate(720,640) scale(0.8,0.8)"><g transform="" style="fill: rgb(255, 255, 255);">
<g>
	<circle cx="50" cy="50" r="30"/>
</g>
</g></g><g transform="translate(800,640) scale(0.8,0.8)"><g transform="" style="fill: rgb(255, 255, 255);">
<g>
	<circle cx="50" cy="50" r="30"/>
</g>
</g></g><g transform="translate(960,640) scale(0.8,0.8)"><g transform="" style="fill: rgb(255, 255, 255);">
<g>
	<circle cx="50" cy="50" r="30"/>
</g>
</g></g><g transform="translate(1040,640) scale(0.8,0.8)"><g transform="" style="fill: rgb(255, 255, 255);">
<g>
	<circle cx="50" cy="50" r="30"/>
</g>
</g></g><g transform="translate(1120,640) scale(0.8,0.8)"><g transform="" style="fill: rgb(255, 255, 255);">
<g>
	<circle cx="50" cy="50" r="30"/>
</g>
</g></g><g transform="translate(1200,640) scale(0.8,0.8)"><g transform="" style="fill: rgb(255, 255, 255);">
<g>
	<circle cx="50" cy="50" r="30"/>
</g>
</g></g><g transform="translate(1360,640) scale(0.8,0.8)"><g transform="" style="fill: rgb(255, 255, 255);">
<g>
	<circle cx="50" cy="50" r="30"/>
</g>
</g></g><g transform="translate(1440,640) scale(0.8,0.8)"><g transform="" style="fill: rgb(255, 255, 255);">
<g>
	<circle cx="50" cy="50" r="30"/>
</g>
</g></g><g transform="translate(1520,640) scale(0.8,0.8)"><g transform="" style="fill: rgb(255, 255, 255);">
<g>
	<circle cx="50" cy="50" r="30"/>
</g>
</g></g><g transform="translate(1600,640) scale(0.8,0.8)"><g transform="" style="fill: rgb(255, 255, 255);">
<g>
	<circle cx="50" cy="50" r="30"/>
</g>
</g></g><g transform="translate(1680,640) scale(0.8,0.8)"><g transform="" style="fill: rgb(255, 255, 255);">
<g>
	<circle cx="50" cy="50" r="30"/>
</g>
</g></g><g transform="translate(1920,640) scale(0.8,0.8)"><g transform="" style="fill: rgb(255, 255, 255);">
<g>
	<circle cx="50" cy="50" r="30"/>
</g>
</g></g><g transform="translate(0,720) scale(0.8,0.8)"><g transform="" style="fill: rgb(255, 255, 255);">
<g>
	<circle cx="50" cy="50" r="30"/>
</g>
</g></g><g transform="translate(240,720) scale(0.8,0.8)"><g transform="" style="fill: rgb(255, 255, 255);">
<g>
	<circle cx="50" cy="50" r="30"/>
</g>
</g></g><g transform="translate(320,720) scale(0.8,0.8)"><g transform="" style="fill: rgb(255, 255, 255);">
<g>
	<circle cx="50" cy="50" r="30"/>
</g>
</g></g><g transform="translate(400,720) scale(0.8,0.8)"><g transform="" style="fill: rgb(255, 255, 255);">
<g>
	<circle cx="50" cy="50" r="30"/>
</g>
</g></g><g transform="translate(720,720) scale(0.8,0.8)"><g transform="" style="fill: rgb(255, 255, 255);">
<g>
	<circle cx="50" cy="50" r="30"/>
</g>
</g></g><g transform="translate(960,720) scale(0.8,0.8)"><g transform="" style="fill: rgb(255, 255, 255);">
<g>
	<circle cx="50" cy="50" r="30"/>
</g>
</g></g><g transform="translate(1600,720) scale(0.8,0.8)"><g transform="" style="fill: rgb(255, 255, 255);">
<g>
	<circle cx="50" cy="50" r="30"/>
</g>
</g></g><g transform="translate(1680,720) scale(0.8,0.8)"><g transform="" style="fill: rgb(255, 255, 255);">
<g>
	<circle cx="50" cy="50" r="30"/>
</g>
</g></g><g transform="translate(1840,720) scale(0.8,0.8)"><g transform="" style="fill: rgb(255, 255, 255);">
<g>
	<circle cx="50" cy="50" r="30"/>
</g>
</g></g><g transform="translate(0,800) scale(0.8,0.8)"><g transform="" style="fill: rgb(255, 255, 255);">
<g>
	<circle cx="50" cy="50" r="30"/>
</g>
</g></g><g transform="translate(80,800) scale(0.8,0.8)"><g transform="" style="fill: rgb(255, 255, 255);">
<g>
	<circle cx="50" cy="50" r="30"/>
</g>
</g></g><g transform="translate(240,800) scale(0.8,0.8)"><g transform="" style="fill: rgb(255, 255, 255);">
<g>
	<circle cx="50" cy="50" r="30"/>
</g>
</g></g><g transform="translate(400,800) scale(0.8,0.8)"><g transform="" style="fill: rgb(255, 255, 255);">
<g>
	<circle cx="50" cy="50" r="30"/>
</g>
</g></g><g transform="translate(480,800) scale(0.8,0.8)"><g transform="" style="fill: rgb(255, 255, 255);">
<g>
	<circle cx="50" cy="50" r="30"/>
</g>
</g></g><g transform="translate(1040,800) scale(0.8,0.8)"><g transform="" style="fill: rgb(255, 255, 255);">
<g>
	<circle cx="50" cy="50" r="30"/>
</g>
</g></g><g transform="translate(1120,800) scale(0.8,0.8)"><g transform="" style="fill: rgb(255, 255, 255);">
<g>
	<circle cx="50" cy="50" r="30"/>
</g>
</g></g><g transform="translate(1200,800) scale(0.8,0.8)"><g transform="" style="fill: rgb(255, 255, 255);">
<g>
	<circle cx="50" cy="50" r="30"/>
</g>
</g></g><g transform="translate(1360,800) scale(0.8,0.8)"><g transform="" style="fill: rgb(255, 255, 255);">
<g>
	<circle cx="50" cy="50" r="30"/>
</g>
</g></g><g transform="translate(1600,800) scale(0.8,0.8)"><g transform="" style="fill: rgb(255, 255, 255);">
<g>
	<circle cx="50" cy="50" r="30"/>
</g>
</g></g><g transform="translate(1680,800) scale(0.8,0.8)"><g transform="" style="fill: rgb(255, 255, 255);">
<g>
	<circle cx="50" cy="50" r="30"/>
</g>
</g></g><g transform="translate(1760,800) scale(0.8,0.8)"><g transform="" style="fill: rgb(255, 255, 255);">
<g>
	<circle cx="50" cy="50" r="30"/>
</g>
</g></g><g transform="translate(80,880) scale(0.8,0.8)"><g transform="" style="fill: rgb(255, 255, 255);">
<g>
	<circle cx="50" cy="50" r="30"/>
</g>
</g></g><g transform="translate(160,880) scale(0.8,0.8)"><g transform="" style="fill: rgb(255, 255, 255);">
<g>
	<circle cx="50" cy="50" r="30"/>
</g>
</g></g><g transform="translate(240,880) scale(0.8,0.8)"><g transform="" style="fill: rgb(255, 255, 255);">
<g>
	<circle cx="50" cy="50" r="30"/>
</g>
</g></g><g transform="translate(320,880) scale(0.8,0.8)"><g transform="" style="fill: rgb(255, 255, 255);">
<g>
	<circle cx="50" cy="50" r="30"/>
</g>
</g></g><g transform="translate(640,880) scale(0.8,0.8)"><g transform="" style="fill: rgb(255, 255, 255);">
<g>
	<circle cx="50" cy="50" r="30"/>
</g>
</g></g><g transform="translate(720,880) scale(0.8,0.8)"><g transform="" style="fill: rgb(255, 255, 255);">
<g>
	<circle cx="50" cy="50" r="30"/>
</g>
</g></g><g transform="translate(800,880) scale(0.8,0.8)"><g transform="" style="fill: rgb(255, 255, 255);">
<g>
	<circle cx="50" cy="50" r="30"/>
</g>
</g></g><g transform="translate(880,880) scale(0.8,0.8)"><g transform="" style="fill: rgb(255, 255, 255);">
<g>
	<circle cx="50" cy="50" r="30"/>
</g>
</g></g><g transform="translate(1040,880) scale(0.8,0.8)"><g transform="" style="fill: rgb(255, 255, 255);">
<g>
	<circle cx="50" cy="50" r="30"/>
</g>
</g></g><g transform="translate(1760,880) scale(0.8,0.8)"><g transform="" style="fill: rgb(255, 255, 255);">
<g>
	<circle cx="50" cy="50" r="30"/>
</g>
</g></g><g transform="translate(1840,880) scale(0.8,0.8)"><g transform="" style="fill: rgb(255, 255, 255);">
<g>
	<circle cx="50" cy="50" r="30"/>
</g>
</g></g><g transform="translate(0,960) scale(0.8,0.8)"><g transform="" style="fill: rgb(255, 255, 255);">
<g>
	<circle cx="50" cy="50" r="30"/>
</g>
</g></g><g transform="translate(160,960) scale(0.8,0.8)"><g transform="" style="fill: rgb(255, 255, 255);">
<g>
	<circle cx="50" cy="50" r="30"/>
</g>
</g></g><g transform="translate(400,960) scale(0.8,0.8)"><g transform="" style="fill: rgb(255, 255, 255);">
<g>
	<circle cx="50" cy="50" r="30"/>
</g>
</g></g><g transform="translate(480,960) scale(0.8,0.8)"><g transform="" style="fill: rgb(255, 255, 255);">
<g>
	<circle cx="50" cy="50" r="30"/>
</g>
</g></g><g transform="translate(640,960) scale(0.8,0.8)"><g transform="" style="fill: rgb(255, 255, 255);">
<g>
	<circle cx="50" cy="50" r="30"/>
</g>
</g></g><g transform="translate(880,960) scale(0.8,0.8)"><g transform="" style="fill: rgb(255, 255, 255);">
<g>
	<circle cx="50" cy="50" r="30"/>
</g>
</g></g><g transform="translate(960,960) scale(0.8,0.8)"><g transform="" style="fill: rgb(255, 255, 255);">
<g>
	<circle cx="50" cy="50" r="30"/>
</g>
</g></g><g transform="translate(1040,960) scale(0.8,0.8)"><g transform="" style="fill: rgb(255, 255, 255);">
<g>
	<circle cx="50" cy="50" r="30"/>
</g>
</g></g><g transform="translate(1280,960) scale(0.8,0.8)"><g transform="" style="fill: rgb(255, 255, 255);">
<g>
	<circle cx="50" cy="50" r="30"/>
</g>
</g></g><g transform="translate(1360,960) scale(0.8,0.8)"><g transform="" style="fill: rgb(255, 255, 255);">
<g>
	<circle cx="50" cy="50" r="30"/>
</g>
</g></g><g transform="translate(1440,960) scale(0.8,0.8)"><g transform="" style="fill: rgb(255, 255, 255);">
<g>
	<circle cx="50" cy="50" r="30"/>
</g>
</g></g><g transform="translate(1520,960) scale(0.8,0.8)"><g transform="" style="fill: rgb(255, 255, 255);">
<g>
	<circle cx="50" cy="50" r="30"/>
</g>
</g></g><g transform="translate(1680,960) scale(0.8,0.8)"><g transform="" style="fill: rgb(255, 255, 255);">
<g>
	<circle cx="50" cy="50" r="30"/>
</g>
</g></g><g transform="translate(1760,960) scale(0.8,0.8)"><g transform="" style="fill: rgb(255, 255, 255);">
<g>
	<circle cx="50" cy="50" r="30"/>
</g>
</g></g><g transform="translate(1840,960) scale(0.8,0.8)"><g transform="" style="fill: rgb(255, 255, 255);">
<g>
	<circle cx="50" cy="50" r="30"/>
</g>
</g></g><g transform="translate(1920,960) scale(0.8,0.8)"><g transform="" style="fill: rgb(255, 255, 255);">
<g>
	<circle cx="50" cy="50" r="30"/>
</g>
</g></g><g transform="translate(0,1040) scale(0.8,0.8)"><g transform="" style="fill: rgb(255, 255, 255);">
<g>
	<circle cx="50" cy="50" r="30"/>
</g>
</g></g><g transform="translate(80,1040) scale(0.8,0.8)"><g transform="" style="fill: rgb(255, 255, 255);">
<g>
	<circle cx="50" cy="50" r="30"/>
</g>
</g></g><g transform="translate(160,1040) scale(0.8,0.8)"><g transform="" style="fill: rgb(255, 255, 255);">
<g>
	<circle cx="50" cy="50" r="30"/>
</g>
</g></g><g transform="translate(240,1040) scale(0.8,0.8)"><g transform="" style="fill: rgb(255, 255, 255);">
<g>
	<circle cx="50" cy="50" r="30"/>
</g>
</g></g><g transform="translate(400,1040) scale(0.8,0.8)"><g transform="" style="fill: rgb(255, 255, 255);">
<g>
	<circle cx="50" cy="50" r="30"/>
</g>
</g></g><g transform="translate(560,1040) scale(0.8,0.8)"><g transform="" style="fill: rgb(255, 255, 255);">
<g>
	<circle cx="50" cy="50" r="30"/>
</g>
</g></g><g transform="translate(720,1040) scale(0.8,0.8)"><g transform="" style="fill: rgb(255, 255, 255);">
<g>
	<circle cx="50" cy="50" r="30"/>
</g>
</g></g><g transform="translate(800,1040) scale(0.8,0.8)"><g transform="" style="fill: rgb(255, 255, 255);">
<g>
	<circle cx="50" cy="50" r="30"/>
</g>
</g></g><g transform="translate(1040,1040) scale(0.8,0.8)"><g transform="" style="fill: rgb(255, 255, 255);">
<g>
	<circle cx="50" cy="50" r="30"/>
</g>
</g></g><g transform="translate(1120,1040) scale(0.8,0.8)"><g transform="" style="fill: rgb(255, 255, 255);">
<g>
	<circle cx="50" cy="50" r="30"/>
</g>
</g></g><g transform="translate(1200,1040) scale(0.8,0.8)"><g transform="" style="fill: rgb(255, 255, 255);">
<g>
	<circle cx="50" cy="50" r="30"/>
</g>
</g></g><g transform="translate(1280,1040) scale(0.8,0.8)"><g transform="" style="fill: rgb(255, 255, 255);">
<g>
	<circle cx="50" cy="50" r="30"/>
</g>
</g></g><g transform="translate(1600,1040) scale(0.8,0.8)"><g transform="" style="fill: rgb(255, 255, 255);">
<g>
	<circle cx="50" cy="50" r="30"/>
</g>
</g></g><g transform="translate(1840,1040) scale(0.8,0.8)"><g transform="" style="fill: rgb(255, 255, 255);">
<g>
	<circle cx="50" cy="50" r="30"/>
</g>
</g></g><g transform="translate(320,1120) scale(0.8,0.8)"><g transform="" style="fill: rgb(255, 255, 255);">
<g>
	<circle cx="50" cy="50" r="30"/>
</g>
</g></g><g transform="translate(400,1120) scale(0.8,0.8)"><g transform="" style="fill: rgb(255, 255, 255);">
<g>
	<circle cx="50" cy="50" r="30"/>
</g>
</g></g><g transform="translate(480,1120) scale(0.8,0.8)"><g transform="" style="fill: rgb(255, 255, 255);">
<g>
	<circle cx="50" cy="50" r="30"/>
</g>
</g></g><g transform="translate(800,1120) scale(0.8,0.8)"><g transform="" style="fill: rgb(255, 255, 255);">
<g>
	<circle cx="50" cy="50" r="30"/>
</g>
</g></g><g transform="translate(1200,1120) scale(0.8,0.8)"><g transform="" style="fill: rgb(255, 255, 255);">
<g>
	<circle cx="50" cy="50" r="30"/>
</g>
</g></g><g transform="translate(1280,1120) scale(0.8,0.8)"><g transform="" style="fill: rgb(255, 255, 255);">
<g>
	<circle cx="50" cy="50" r="30"/>
</g>
</g></g><g transform="translate(1360,1120) scale(0.8,0.8)"><g transform="" style="fill: rgb(255, 255, 255);">
<g>
	<circle cx="50" cy="50" r="30"/>
</g>
</g></g><g transform="translate(1520,1120) scale(0.8,0.8)"><g transform="" style="fill: rgb(255, 255, 255);">
<g>
	<circle cx="50" cy="50" r="30"/>
</g>
</g></g><g transform="translate(1600,1120) scale(0.8,0.8)"><g transform="" style="fill: rgb(255, 255, 255);">
<g>
	<circle cx="50" cy="50" r="30"/>
</g>
</g></g><g transform="translate(1680,1120) scale(0.8,0.8)"><g transform="" style="fill: rgb(255, 255, 255);">
<g>
	<circle cx="50" cy="50" r="30"/>
</g>
</g></g><g transform="translate(1760,1120) scale(0.8,0.8)"><g transform="" style="fill: rgb(255, 255, 255);">
<g>
	<circle cx="50" cy="50" r="30"/>
</g>
</g></g><g transform="translate(240,1200) scale(0.8,0.8)"><g transform="" style="fill: rgb(255, 255, 255);">
<g>
	<circle cx="50" cy="50" r="30"/>
</g>
</g></g><g transform="translate(320,1200) scale(0.8,0.8)"><g transform="" style="fill: rgb(255, 255, 255);">
<g>
	<circle cx="50" cy="50" r="30"/>
</g>
</g></g><g transform="translate(560,1200) scale(0.8,0.8)"><g transform="" style="fill: rgb(255, 255, 255);">
<g>
	<circle cx="50" cy="50" r="30"/>
</g>
</g></g><g transform="translate(640,1200) scale(0.8,0.8)"><g transform="" style="fill: rgb(255, 255, 255);">
<g>
	<circle cx="50" cy="50" r="30"/>
</g>
</g></g><g transform="translate(800,1200) scale(0.8,0.8)"><g transform="" style="fill: rgb(255, 255, 255);">
<g>
	<circle cx="50" cy="50" r="30"/>
</g>
</g></g><g transform="translate(960,1200) scale(0.8,0.8)"><g transform="" style="fill: rgb(255, 255, 255);">
<g>
	<circle cx="50" cy="50" r="30"/>
</g>
</g></g><g transform="translate(1120,1200) scale(0.8,0.8)"><g transform="" style="fill: rgb(255, 255, 255);">
<g>
	<circle cx="50" cy="50" r="30"/>
</g>
</g></g><g transform="translate(1200,1200) scale(0.8,0.8)"><g transform="" style="fill: rgb(255, 255, 255);">
<g>
	<circle cx="50" cy="50" r="30"/>
</g>
</g></g><g transform="translate(1280,1200) scale(0.8,0.8)"><g transform="" style="fill: rgb(255, 255, 255);">
<g>
	<circle cx="50" cy="50" r="30"/>
</g>
</g></g><g transform="translate(1520,1200) scale(0.8,0.8)"><g transform="" style="fill: rgb(255, 255, 255);">
<g>
	<circle cx="50" cy="50" r="30"/>
</g>
</g></g><g transform="translate(1600,1200) scale(0.8,0.8)"><g transform="" style="fill: rgb(255, 255, 255);">
<g>
	<circle cx="50" cy="50" r="30"/>
</g>
</g></g><g transform="translate(1760,1200) scale(0.8,0.8)"><g transform="" style="fill: rgb(255, 255, 255);">
<g>
	<circle cx="50" cy="50" r="30"/>
</g>
</g></g><g transform="translate(1840,1200) scale(0.8,0.8)"><g transform="" style="fill: rgb(255, 255, 255);">
<g>
	<circle cx="50" cy="50" r="30"/>
</g>
</g></g><g transform="translate(0,1280) scale(0.8,0.8)"><g transform="" style="fill: rgb(255, 255, 255);">
<g>
	<circle cx="50" cy="50" r="30"/>
</g>
</g></g><g transform="translate(80,1280) scale(0.8,0.8)"><g transform="" style="fill: rgb(255, 255, 255);">
<g>
	<circle cx="50" cy="50" r="30"/>
</g>
</g></g><g transform="translate(240,1280) scale(0.8,0.8)"><g transform="" style="fill: rgb(255, 255, 255);">
<g>
	<circle cx="50" cy="50" r="30"/>
</g>
</g></g><g transform="translate(320,1280) scale(0.8,0.8)"><g transform="" style="fill: rgb(255, 255, 255);">
<g>
	<circle cx="50" cy="50" r="30"/>
</g>
</g></g><g transform="translate(480,1280) scale(0.8,0.8)"><g transform="" style="fill: rgb(255, 255, 255);">
<g>
	<circle cx="50" cy="50" r="30"/>
</g>
</g></g><g transform="translate(560,1280) scale(0.8,0.8)"><g transform="" style="fill: rgb(255, 255, 255);">
<g>
	<circle cx="50" cy="50" r="30"/>
</g>
</g></g><g transform="translate(720,1280) scale(0.8,0.8)"><g transform="" style="fill: rgb(255, 255, 255);">
<g>
	<circle cx="50" cy="50" r="30"/>
</g>
</g></g><g transform="translate(880,1280) scale(0.8,0.8)"><g transform="" style="fill: rgb(255, 255, 255);">
<g>
	<circle cx="50" cy="50" r="30"/>
</g>
</g></g><g transform="translate(1040,1280) scale(0.8,0.8)"><g transform="" style="fill: rgb(255, 255, 255);">
<g>
	<circle cx="50" cy="50" r="30"/>
</g>
</g></g><g transform="translate(1120,1280) scale(0.8,0.8)"><g transform="" style="fill: rgb(255, 255, 255);">
<g>
	<circle cx="50" cy="50" r="30"/>
</g>
</g></g><g transform="translate(1280,1280) scale(0.8,0.8)"><g transform="" style="fill: rgb(255, 255, 255);">
<g>
	<circle cx="50" cy="50" r="30"/>
</g>
</g></g><g transform="translate(1360,1280) scale(0.8,0.8)"><g transform="" style="fill: rgb(255, 255, 255);">
<g>
	<circle cx="50" cy="50" r="30"/>
</g>
</g></g><g transform="translate(1440,1280) scale(0.8,0.8)"><g transform="" style="fill: rgb(255, 255, 255);">
<g>
	<circle cx="50" cy="50" r="30"/>
</g>
</g></g><g transform="translate(1520,1280) scale(0.8,0.8)"><g transform="" style="fill: rgb(255, 255, 255);">
<g>
	<circle cx="50" cy="50" r="30"/>
</g>
</g></g><g transform="translate(1600,1280) scale(0.8,0.8)"><g transform="" style="fill: rgb(255, 255, 255);">
<g>
	<circle cx="50" cy="50" r="30"/>
</g>
</g></g><g transform="translate(1680,1280) scale(0.8,0.8)"><g transform="" style="fill: rgb(255, 255, 255);">
<g>
	<circle cx="50" cy="50" r="30"/>
</g>
</g></g><g transform="translate(1760,1280) scale(0.8,0.8)"><g transform="" style="fill: rgb(255, 255, 255);">
<g>
	<circle cx="50" cy="50" r="30"/>
</g>
</g></g><g transform="translate(640,1360) scale(0.8,0.8)"><g transform="" style="fill: rgb(255, 255, 255);">
<g>
	<circle cx="50" cy="50" r="30"/>
</g>
</g></g><g transform="translate(720,1360) scale(0.8,0.8)"><g transform="" style="fill: rgb(255, 255, 255);">
<g>
	<circle cx="50" cy="50" r="30"/>
</g>
</g></g><g transform="translate(960,1360) scale(0.8,0.8)"><g transform="" style="fill: rgb(255, 255, 255);">
<g>
	<circle cx="50" cy="50" r="30"/>
</g>
</g></g><g transform="translate(1200,1360) scale(0.8,0.8)"><g transform="" style="fill: rgb(255, 255, 255);">
<g>
	<circle cx="50" cy="50" r="30"/>
</g>
</g></g><g transform="translate(1280,1360) scale(0.8,0.8)"><g transform="" style="fill: rgb(255, 255, 255);">
<g>
	<circle cx="50" cy="50" r="30"/>
</g>
</g></g><g transform="translate(1600,1360) scale(0.8,0.8)"><g transform="" style="fill: rgb(255, 255, 255);">
<g>
	<circle cx="50" cy="50" r="30"/>
</g>
</g></g><g transform="translate(640,1440) scale(0.8,0.8)"><g transform="" style="fill: rgb(255, 255, 255);">
<g>
	<circle cx="50" cy="50" r="30"/>
</g>
</g></g><g transform="translate(720,1440) scale(0.8,0.8)"><g transform="" style="fill: rgb(255, 255, 255);">
<g>
	<circle cx="50" cy="50" r="30"/>
</g>
</g></g><g transform="translate(800,1440) scale(0.8,0.8)"><g transform="" style="fill: rgb(255, 255, 255);">
<g>
	<circle cx="50" cy="50" r="30"/>
</g>
</g></g><g transform="translate(880,1440) scale(0.8,0.8)"><g transform="" style="fill: rgb(255, 255, 255);">
<g>
	<circle cx="50" cy="50" r="30"/>
</g>
</g></g><g transform="translate(960,1440) scale(0.8,0.8)"><g transform="" style="fill: rgb(255, 255, 255);">
<g>
	<circle cx="50" cy="50" r="30"/>
</g>
</g></g><g transform="translate(1040,1440) scale(0.8,0.8)"><g transform="" style="fill: rgb(255, 255, 255);">
<g>
	<circle cx="50" cy="50" r="30"/>
</g>
</g></g><g transform="translate(1120,1440) scale(0.8,0.8)"><g transform="" style="fill: rgb(255, 255, 255);">
<g>
	<circle cx="50" cy="50" r="30"/>
</g>
</g></g><g transform="translate(1280,1440) scale(0.8,0.8)"><g transform="" style="fill: rgb(255, 255, 255);">
<g>
	<circle cx="50" cy="50" r="30"/>
</g>
</g></g><g transform="translate(1440,1440) scale(0.8,0.8)"><g transform="" style="fill: rgb(255, 255, 255);">
<g>
	<circle cx="50" cy="50" r="30"/>
</g>
</g></g><g transform="translate(1600,1440) scale(0.8,0.8)"><g transform="" style="fill: rgb(255, 255, 255);">
<g>
	<circle cx="50" cy="50" r="30"/>
</g>
</g></g><g transform="translate(720,1520) scale(0.8,0.8)"><g transform="" style="fill: rgb(255, 255, 255);">
<g>
	<circle cx="50" cy="50" r="30"/>
</g>
</g></g><g transform="translate(800,1520) scale(0.8,0.8)"><g transform="" style="fill: rgb(255, 255, 255);">
<g>
	<circle cx="50" cy="50" r="30"/>
</g>
</g></g><g transform="translate(880,1520) scale(0.8,0.8)"><g transform="" style="fill: rgb(255, 255, 255);">
<g>
	<circle cx="50" cy="50" r="30"/>
</g>
</g></g><g transform="translate(1040,1520) scale(0.8,0.8)"><g transform="" style="fill: rgb(255, 255, 255);">
<g>
	<circle cx="50" cy="50" r="30"/>
</g>
</g></g><g transform="translate(1280,1520) scale(0.8,0.8)"><g transform="" style="fill: rgb(255, 255, 255);">
<g>
	<circle cx="50" cy="50" r="30"/>
</g>
</g></g><g transform="translate(1600,1520) scale(0.8,0.8)"><g transform="" style="fill: rgb(255, 255, 255);">
<g>
	<circle cx="50" cy="50" r="30"/>
</g>
</g></g><g transform="translate(1680,1520) scale(0.8,0.8)"><g transform="" style="fill: rgb(255, 255, 255);">
<g>
	<circle cx="50" cy="50" r="30"/>
</g>
</g></g><g transform="translate(1760,1520) scale(0.8,0.8)"><g transform="" style="fill: rgb(255, 255, 255);">
<g>
	<circle cx="50" cy="50" r="30"/>
</g>
</g></g><g transform="translate(1920,1520) scale(0.8,0.8)"><g transform="" style="fill: rgb(255, 255, 255);">
<g>
	<circle cx="50" cy="50" r="30"/>
</g>
</g></g><g transform="translate(640,1600) scale(0.8,0.8)"><g transform="" style="fill: rgb(255, 255, 255);">
<g>
	<circle cx="50" cy="50" r="30"/>
</g>
</g></g><g transform="translate(800,1600) scale(0.8,0.8)"><g transform="" style="fill: rgb(255, 255, 255);">
<g>
	<circle cx="50" cy="50" r="30"/>
</g>
</g></g><g transform="translate(960,1600) scale(0.8,0.8)"><g transform="" style="fill: rgb(255, 255, 255);">
<g>
	<circle cx="50" cy="50" r="30"/>
</g>
</g></g><g transform="translate(1040,1600) scale(0.8,0.8)"><g transform="" style="fill: rgb(255, 255, 255);">
<g>
	<circle cx="50" cy="50" r="30"/>
</g>
</g></g><g transform="translate(1280,1600) scale(0.8,0.8)"><g transform="" style="fill: rgb(255, 255, 255);">
<g>
	<circle cx="50" cy="50" r="30"/>
</g>
</g></g><g transform="translate(1360,1600) scale(0.8,0.8)"><g transform="" style="fill: rgb(255, 255, 255);">
<g>
	<circle cx="50" cy="50" r="30"/>
</g>
</g></g><g transform="translate(1440,1600) scale(0.8,0.8)"><g transform="" style="fill: rgb(255, 255, 255);">
<g>
	<circle cx="50" cy="50" r="30"/>
</g>
</g></g><g transform="translate(1520,1600) scale(0.8,0.8)"><g transform="" style="fill: rgb(255, 255, 255);">
<g>
	<circle cx="50" cy="50" r="30"/>
</g>
</g></g><g transform="translate(1600,1600) scale(0.8,0.8)"><g transform="" style="fill: rgb(255, 255, 255);">
<g>
	<circle cx="50" cy="50" r="30"/>
</g>
</g></g><g transform="translate(1680,1600) scale(0.8,0.8)"><g transform="" style="fill: rgb(255, 255, 255);">
<g>
	<circle cx="50" cy="50" r="30"/>
</g>
</g></g><g transform="translate(1760,1600) scale(0.8,0.8)"><g transform="" style="fill: rgb(255, 255, 255);">
<g>
	<circle cx="50" cy="50" r="30"/>
</g>
</g></g><g transform="translate(1840,1600) scale(0.8,0.8)"><g transform="" style="fill: rgb(255, 255, 255);">
<g>
	<circle cx="50" cy="50" r="30"/>
</g>
</g></g><g transform="translate(800,1680) scale(0.8,0.8)"><g transform="" style="fill: rgb(255, 255, 255);">
<g>
	<circle cx="50" cy="50" r="30"/>
</g>
</g></g><g transform="translate(1040,1680) scale(0.8,0.8)"><g transform="" style="fill: rgb(255, 255, 255);">
<g>
	<circle cx="50" cy="50" r="30"/>
</g>
</g></g><g transform="translate(1120,1680) scale(0.8,0.8)"><g transform="" style="fill: rgb(255, 255, 255);">
<g>
	<circle cx="50" cy="50" r="30"/>
</g>
</g></g><g transform="translate(1280,1680) scale(0.8,0.8)"><g transform="" style="fill: rgb(255, 255, 255);">
<g>
	<circle cx="50" cy="50" r="30"/>
</g>
</g></g><g transform="translate(1360,1680) scale(0.8,0.8)"><g transform="" style="fill: rgb(255, 255, 255);">
<g>
	<circle cx="50" cy="50" r="30"/>
</g>
</g></g><g transform="translate(1440,1680) scale(0.8,0.8)"><g transform="" style="fill: rgb(255, 255, 255);">
<g>
	<circle cx="50" cy="50" r="30"/>
</g>
</g></g><g transform="translate(1520,1680) scale(0.8,0.8)"><g transform="" style="fill: rgb(255, 255, 255);">
<g>
	<circle cx="50" cy="50" r="30"/>
</g>
</g></g><g transform="translate(1760,1680) scale(0.8,0.8)"><g transform="" style="fill: rgb(255, 255, 255);">
<g>
	<circle cx="50" cy="50" r="30"/>
</g>
</g></g><g transform="translate(1920,1680) scale(0.8,0.8)"><g transform="" style="fill: rgb(255, 255, 255);">
<g>
	<circle cx="50" cy="50" r="30"/>
</g>
</g></g><g transform="translate(720,1760) scale(0.8,0.8)"><g transform="" style="fill: rgb(255, 255, 255);">
<g>
	<circle cx="50" cy="50" r="30"/>
</g>
</g></g><g transform="translate(800,1760) scale(0.8,0.8)"><g transform="" style="fill: rgb(255, 255, 255);">
<g>
	<circle cx="50" cy="50" r="30"/>
</g>
</g></g><g transform="translate(1360,1760) scale(0.8,0.8)"><g transform="" style="fill: rgb(255, 255, 255);">
<g>
	<circle cx="50" cy="50" r="30"/>
</g>
</g></g><g transform="translate(1440,1760) scale(0.8,0.8)"><g transform="" style="fill: rgb(255, 255, 255);">
<g>
	<circle cx="50" cy="50" r="30"/>
</g>
</g></g><g transform="translate(1680,1760) scale(0.8,0.8)"><g transform="" style="fill: rgb(255, 255, 255);">
<g>
	<circle cx="50" cy="50" r="30"/>
</g>
</g></g><g transform="translate(1840,1760) scale(0.8,0.8)"><g transform="" style="fill: rgb(255, 255, 255);">
<g>
	<circle cx="50" cy="50" r="30"/>
</g>
</g></g><g transform="translate(720,1840) scale(0.8,0.8)"><g transform="" style="fill: rgb(255, 255, 255);">
<g>
	<circle cx="50" cy="50" r="30"/>
</g>
</g></g><g transform="translate(960,1840) scale(0.8,0.8)"><g transform="" style="fill: rgb(255, 255, 255);">
<g>
	<circle cx="50" cy="50" r="30"/>
</g>
</g></g><g transform="translate(1120,1840) scale(0.8,0.8)"><g transform="" style="fill: rgb(255, 255, 255);">
<g>
	<circle cx="50" cy="50" r="30"/>
</g>
</g></g><g transform="translate(1200,1840) scale(0.8,0.8)"><g transform="" style="fill: rgb(255, 255, 255);">
<g>
	<circle cx="50" cy="50" r="30"/>
</g>
</g></g><g transform="translate(1520,1840) scale(0.8,0.8)"><g transform="" style="fill: rgb(255, 255, 255);">
<g>
	<circle cx="50" cy="50" r="30"/>
</g>
</g></g><g transform="translate(1600,1840) scale(0.8,0.8)"><g transform="" style="fill: rgb(255, 255, 255);">
<g>
	<circle cx="50" cy="50" r="30"/>
</g>
</g></g><g transform="translate(1680,1840) scale(0.8,0.8)"><g transform="" style="fill: rgb(255, 255, 255);">
<g>
	<circle cx="50" cy="50" r="30"/>
</g>
</g></g><g transform="translate(1760,1840) scale(0.8,0.8)"><g transform="" style="fill: rgb(255, 255, 255);">
<g>
	<circle cx="50" cy="50" r="30"/>
</g>
</g></g><g transform="translate(1840,1840) scale(0.8,0.8)"><g transform="" style="fill: rgb(255, 255, 255);">
<g>
	<circle cx="50" cy="50" r="30"/>
</g>
</g></g><g transform="translate(640,1920) scale(0.8,0.8)"><g transform="" style="fill: rgb(255, 255, 255);">
<g>
	<circle cx="50" cy="50" r="30"/>
</g>
</g></g><g transform="translate(720,1920) scale(0.8,0.8)"><g transform="" style="fill: rgb(255, 255, 255);">
<g>
	<circle cx="50" cy="50" r="30"/>
</g>
</g></g><g transform="translate(880,1920) scale(0.8,0.8)"><g transform="" style="fill: rgb(255, 255, 255);">
<g>
	<circle cx="50" cy="50" r="30"/>
</g>
</g></g><g transform="translate(1040,1920) scale(0.8,0.8)"><g transform="" style="fill: rgb(255, 255, 255);">
<g>
	<circle cx="50" cy="50" r="30"/>
</g>
</g></g><g transform="translate(1120,1920) scale(0.8,0.8)"><g transform="" style="fill: rgb(255, 255, 255);">
<g>
	<circle cx="50" cy="50" r="30"/>
</g>
</g></g><g transform="translate(1440,1920) scale(0.8,0.8)"><g transform="" style="fill: rgb(255, 255, 255);">
<g>
	<circle cx="50" cy="50" r="30"/>
</g>
</g></g><g transform="translate(1760,1920) scale(0.8,0.8)"><g transform="" style="fill: rgb(255, 255, 255);">
<g>
	<circle cx="50" cy="50" r="30"/>
</g>
</g></g><g transform="translate(1840,1920) scale(0.8,0.8)"><g transform="" style="fill: rgb(255, 255, 255);">
<g>
	<circle cx="50" cy="50" r="30"/>
</g>
</g></g><g transform="translate(1920,1920) scale(0.8,0.8)"><g transform="" style="fill: rgb(255, 255, 255);">
<g>
	<circle cx="50" cy="50" r="30"/>
</g>
</g></g><g transform="translate(0,0) scale(5.6, 5.6)"><g transform=" translate(0,100) scale(1,-1) " style="fill: rgb(255, 255, 255);">
<g>
</g>
<g>
	<path style="fill:none;" d="M84.997,28.739C78.951,25.757,74.22,21.056,71.09,14.94H27.75c-0.562,0.145-1.072,0.269-1.496,0.372
		l-0.125,0.031c-1.139,0.282-2.316,0.573-2.943,0.839c-1.639,0.692-3.165,2.181-4.602,3.719c-1.336,1.423-2.205,2.952-2.648,4.662
		l-0.112,0.514c-0.38,1.713-0.811,3.652-0.824,4.807l0.08,22.687l-0.077,18.571c6.039,2.979,10.769,7.678,13.905,13.798h43.357
		c0.575-0.149,1.085-0.275,1.481-0.371l0.125-0.031c1.14-0.282,2.318-0.573,2.971-0.849c1.606-0.676,3.143-2.171,4.56-3.684
		c1.349-1.439,2.224-2.98,2.667-4.702l0.108-0.5c0.38-1.712,0.811-3.651,0.823-4.808l-0.08-22.686L84.997,28.739z"/>
	<path d="M100,27.994c0-6.328-2.49-10.162-7.49-12.305c-4.319-1.842-7.38-5.196-9.109-9.992C82.01,1.822,79.14-0.06,74.64-0.06
		c-0.029,0-0.06,0-0.09,0H25.83c-0.06,0.01-0.13,0-0.19,0.02c-0.98,0.3-2,0.55-2.99,0.791c-1.74,0.431-3.55,0.871-5.3,1.612
		c-4.22,1.782-7.27,4.666-9.7,7.269c-3.3,3.514-5.46,7.579-6.45,12.064l-0.02,0.13C0.6,24.439,0.01,27.153,0,29.866l0.08,22.757
		L0,71.887c0,6.327,2.49,10.161,7.49,12.305c4.32,1.842,7.38,5.206,9.11,9.991c1.39,3.875,4.26,5.757,8.76,5.757
		c0.03,0,0.06,0,0.09,0c0.12,0,0.25,0,0.38,0h48.34c0,0,0,0,0.01,0h0.181v-0.02c0.979-0.29,2-0.551,2.989-0.791
		c1.74-0.431,3.551-0.871,5.301-1.611c4.22-1.772,7.27-4.666,9.699-7.259c3.301-3.524,5.46-7.59,6.45-12.074l0.021-0.131
		c0.58-2.613,1.17-5.316,1.18-8.039l-0.08-22.758L100,27.994z M84.177,74.803l-0.108,0.5c-0.443,1.722-1.318,3.263-2.667,4.702
		c-1.417,1.513-2.953,3.008-4.56,3.684c-0.652,0.275-1.831,0.566-2.971,0.849l-0.125,0.031c-0.396,0.096-0.906,0.222-1.481,0.371
		H28.908c-3.136-6.12-7.866-10.819-13.905-13.798L15.08,52.57L15,29.884c0.013-1.155,0.443-3.094,0.824-4.807l0.112-0.514
		c0.443-1.71,1.312-3.239,2.648-4.662c1.437-1.539,2.963-3.027,4.602-3.719c0.627-0.266,1.805-0.557,2.943-0.839l0.125-0.031
		c0.424-0.103,0.934-0.227,1.496-0.372H71.09c3.13,6.116,7.861,10.817,13.907,13.799l-0.077,18.57L85,69.995
		C84.987,71.151,84.557,73.091,84.177,74.803z"/>
</g>
</g></g><g transform="translate(1440,0) scale(5.6, 5.6)"><g transform="" style="fill: rgb(255, 255, 255);">
<g>
</g>
<g>
	<path style="fill:none;" d="M84.997,28.739C78.951,25.757,74.22,21.056,71.09,14.94H27.75c-0.562,0.145-1.072,0.269-1.496,0.372
		l-0.125,0.031c-1.139,0.282-2.316,0.573-2.943,0.839c-1.639,0.692-3.165,2.181-4.602,3.719c-1.336,1.423-2.205,2.952-2.648,4.662
		l-0.112,0.514c-0.38,1.713-0.811,3.652-0.824,4.807l0.08,22.687l-0.077,18.571c6.039,2.979,10.769,7.678,13.905,13.798h43.357
		c0.575-0.149,1.085-0.275,1.481-0.371l0.125-0.031c1.14-0.282,2.318-0.573,2.971-0.849c1.606-0.676,3.143-2.171,4.56-3.684
		c1.349-1.439,2.224-2.98,2.667-4.702l0.108-0.5c0.38-1.712,0.811-3.651,0.823-4.808l-0.08-22.686L84.997,28.739z"/>
	<path d="M100,27.994c0-6.328-2.49-10.162-7.49-12.305c-4.319-1.842-7.38-5.196-9.109-9.992C82.01,1.822,79.14-0.06,74.64-0.06
		c-0.029,0-0.06,0-0.09,0H25.83c-0.06,0.01-0.13,0-0.19,0.02c-0.98,0.3-2,0.55-2.99,0.791c-1.74,0.431-3.55,0.871-5.3,1.612
		c-4.22,1.782-7.27,4.666-9.7,7.269c-3.3,3.514-5.46,7.579-6.45,12.064l-0.02,0.13C0.6,24.439,0.01,27.153,0,29.866l0.08,22.757
		L0,71.887c0,6.327,2.49,10.161,7.49,12.305c4.32,1.842,7.38,5.206,9.11,9.991c1.39,3.875,4.26,5.757,8.76,5.757
		c0.03,0,0.06,0,0.09,0c0.12,0,0.25,0,0.38,0h48.34c0,0,0,0,0.01,0h0.181v-0.02c0.979-0.29,2-0.551,2.989-0.791
		c1.74-0.431,3.551-0.871,5.301-1.611c4.22-1.772,7.27-4.666,9.699-7.259c3.301-3.524,5.46-7.59,6.45-12.074l0.021-0.131
		c0.58-2.613,1.17-5.316,1.18-8.039l-0.08-22.758L100,27.994z M84.177,74.803l-0.108,0.5c-0.443,1.722-1.318,3.263-2.667,4.702
		c-1.417,1.513-2.953,3.008-4.56,3.684c-0.652,0.275-1.831,0.566-2.971,0.849l-0.125,0.031c-0.396,0.096-0.906,0.222-1.481,0.371
		H28.908c-3.136-6.12-7.866-10.819-13.905-13.798L15.08,52.57L15,29.884c0.013-1.155,0.443-3.094,0.824-4.807l0.112-0.514
		c0.443-1.71,1.312-3.239,2.648-4.662c1.437-1.539,2.963-3.027,4.602-3.719c0.627-0.266,1.805-0.557,2.943-0.839l0.125-0.031
		c0.424-0.103,0.934-0.227,1.496-0.372H71.09c3.13,6.116,7.861,10.817,13.907,13.799l-0.077,18.57L85,69.995
		C84.987,71.151,84.557,73.091,84.177,74.803z"/>
</g>
</g></g><g transform="translate(0,1440) scale(5.6, 5.6)"><g transform="" style="fill: rgb(255, 255, 255);">
<g>
</g>
<g>
	<path style="fill:none;" d="M84.997,28.739C78.951,25.757,74.22,21.056,71.09,14.94H27.75c-0.562,0.145-1.072,0.269-1.496,0.372
		l-0.125,0.031c-1.139,0.282-2.316,0.573-2.943,0.839c-1.639,0.692-3.165,2.181-4.602,3.719c-1.336,1.423-2.205,2.952-2.648,4.662
		l-0.112,0.514c-0.38,1.713-0.811,3.652-0.824,4.807l0.08,22.687l-0.077,18.571c6.039,2.979,10.769,7.678,13.905,13.798h43.357
		c0.575-0.149,1.085-0.275,1.481-0.371l0.125-0.031c1.14-0.282,2.318-0.573,2.971-0.849c1.606-0.676,3.143-2.171,4.56-3.684
		c1.349-1.439,2.224-2.98,2.667-4.702l0.108-0.5c0.38-1.712,0.811-3.651,0.823-4.808l-0.08-22.686L84.997,28.739z"/>
	<path d="M100,27.994c0-6.328-2.49-10.162-7.49-12.305c-4.319-1.842-7.38-5.196-9.109-9.992C82.01,1.822,79.14-0.06,74.64-0.06
		c-0.029,0-0.06,0-0.09,0H25.83c-0.06,0.01-0.13,0-0.19,0.02c-0.98,0.3-2,0.55-2.99,0.791c-1.74,0.431-3.55,0.871-5.3,1.612
		c-4.22,1.782-7.27,4.666-9.7,7.269c-3.3,3.514-5.46,7.579-6.45,12.064l-0.02,0.13C0.6,24.439,0.01,27.153,0,29.866l0.08,22.757
		L0,71.887c0,6.327,2.49,10.161,7.49,12.305c4.32,1.842,7.38,5.206,9.11,9.991c1.39,3.875,4.26,5.757,8.76,5.757
		c0.03,0,0.06,0,0.09,0c0.12,0,0.25,0,0.38,0h48.34c0,0,0,0,0.01,0h0.181v-0.02c0.979-0.29,2-0.551,2.989-0.791
		c1.74-0.431,3.551-0.871,5.301-1.611c4.22-1.772,7.27-4.666,9.699-7.259c3.301-3.524,5.46-7.59,6.45-12.074l0.021-0.131
		c0.58-2.613,1.17-5.316,1.18-8.039l-0.08-22.758L100,27.994z M84.177,74.803l-0.108,0.5c-0.443,1.722-1.318,3.263-2.667,4.702
		c-1.417,1.513-2.953,3.008-4.56,3.684c-0.652,0.275-1.831,0.566-2.971,0.849l-0.125,0.031c-0.396,0.096-0.906,0.222-1.481,0.371
		H28.908c-3.136-6.12-7.866-10.819-13.905-13.798L15.08,52.57L15,29.884c0.013-1.155,0.443-3.094,0.824-4.807l0.112-0.514
		c0.443-1.71,1.312-3.239,2.648-4.662c1.437-1.539,2.963-3.027,4.602-3.719c0.627-0.266,1.805-0.557,2.943-0.839l0.125-0.031
		c0.424-0.103,0.934-0.227,1.496-0.372H71.09c3.13,6.116,7.861,10.817,13.907,13.799l-0.077,18.57L85,69.995
		C84.987,71.151,84.557,73.091,84.177,74.803z"/>
</g>
</g></g><g transform="translate(160,160) scale(2.4, 2.4)"><g transform="" style="fill: rgb(255, 255, 255);">
<polygon points="51.156,100 0,49.844 0,0 49.844,0 100,51.156 100,100 "/>
</g></g><g transform="translate(1600,160) scale(2.4, 2.4)"><g transform=" translate(100, 0) scale(-1,1) " style="fill: rgb(255, 255, 255);">
<polygon points="51.156,100 0,49.844 0,0 49.844,0 100,51.156 100,100 "/>
</g></g><g transform="translate(160,1600) scale(2.4, 2.4)"><g transform=" translate(0,100) scale(1,-1) " style="fill: rgb(255, 255, 255);">
<polygon points="51.156,100 0,49.844 0,0 49.844,0 100,51.156 100,100 "/>
</g></g></g></mask></defs></g><rect x="0" y="0" width="2000" height="2000" fill="url(#grad)" mask="url(#gmask)" /></g></svg>